# xmcd CD database file
#
# Track frame offsets:
#	150
#	14247
#	32640
#	44622
#	60282
#	72805
#	88252
#	104095
#	120897
#	136227
#	151815
#	165850
#	179887
#	191160
#	202915
#	216887
#	226557
#	239547
#	253737
#	266662
#	281475
#	295287
#	309247
#	322242
#
# Disc length: 4494 seconds
#
# Revision: 1
# Processed by: cddbd v1.5.2PL0 Copyright (c) Steve Scherf et al.
# Submitted via: CDex 1.51
#
DISCID=61118c18
DTITLE=Lowell Fulson - Tramp - Soul
DYEAR=1900
DGENRE=Blues
TTITLE0=Tramp
TTITLE1=I'm Sinkin'
TTITLE2=Get Your Game Up Tight
TTITLE3=Back Door Key
TTITLE4=Two Way Wishing
TTITLE5=Lonely Day
TTITLE6=Black Nights
TTITLE7=Year Of 29
TTITLE8=No Hard Feelings
TTITLE9=Hustlers Game
TTITLE10=Goin' Home
TTITLE11=Pico
TTITLE12=Talkin' Woman
TTITLE13=Shattered Dreams
TTITLE14=Sittin' Here Thinkin'
TTITLE15=Little Angel
TTITLE16=Change Your Ways
TTITLE17=Blues Around Midnight
TTITLE18=Everytime It Rains
TTITLE19=Just One More Time
TTITLE20=Ask At Any Door In Town
TTITLE21=Too Many Drivers
TTITLE22=My Aching Back
TTITLE23=Too Many Drivers (Alt. Take)
EXTD=
EXTT0=
EXTT1=
EXTT2=
EXTT3=
EXTT4=
EXTT5=
EXTT6=
EXTT7=
EXTT8=
EXTT9=
EXTT10=
EXTT11=
EXTT12=
EXTT13=
EXTT14=
EXTT15=
EXTT16=
EXTT17=
EXTT18=
EXTT19=
EXTT20=
EXTT21=
EXTT22=
EXTT23=
PLAYORDER=
